<svg xmlns="http://www.w3.org/2000/svg" width="32" height="32" viewBox="0 0 24 24" fill="none" stroke="currentColor" stroke-width="2" stroke-linecap="round" stroke-linejoin="round" class="lucide lucide-tip-jar">
  <path d="M12 19c-4.3 0-7.7-1.6-7.7-3.5 0-.8.3-1.5 1-2 1.3-1.3 2.1-3.6 2.1-6.2a4.6 4.6 0 0 1 9.2 0c0 2.7.8 5 2.1 6.2.7.5 1 1.3 1 2 0 2-3.4 3.5-7.7 3.5z" fill="#93EC93" stroke-width="0"/>
  <path d="M9 10h6" stroke="#364949"/>
  <path d="M10 14h4" stroke="#364949"/>
  <path d="M12 4V2" stroke="#9fd6e9"/>
  <ellipse cx="12" cy="19" rx="7.7" ry="3.5" stroke="#364949"/>
</svg>